<svg width="530" height="438" viewBox="0 0 530 438" fill="none" xmlns="http://www.w3.org/2000/svg">
<path d="M151.067 3.59998C148 6.79998 147.2 11.7333 148.8 15.8666C149.333 17.0666 154.667 20.4 160.8 23.3333C175.6 30.5333 185.067 39.7333 191.733 53.6C196.533 63.7333 196.667 64.4 196.667 79.4667C196.667 94.5333 196.533 95.0667 191.733 104.8C185.2 118.133 175.6 127.6 162.667 133.867L152.667 138.667L82.6667 139.333L12.6667 140L8.26668 143.067C0.400017 148.8 -0.399983 152.133 0.400017 174C3.33335 244.667 40.2667 309.467 101.067 350.133C113.2 358.267 119.867 361.733 144 372.933C148.4 375.067 144.667 375.2 83.2 375.2C19.0667 375.333 17.6 375.333 14.1334 378.133C9.73335 381.6 9.33335 388.667 13.3334 392.667C16 395.333 17.7334 395.333 220.533 395.333H425.2L427.867 391.867C431.6 387.2 431.333 382.667 427.333 378.667L424.133 375.333L363.067 375.2C305.867 375.2 302.267 375.067 306.667 373.067C338.4 358.4 353.2 349.333 372.667 332.8C385.867 321.6 401.6 304.133 410.4 290.933L416.4 282H441.867C479.2 282 491.867 278 508.533 261.2C522.533 247.2 529.333 230.8 529.333 210.667C529.333 190.533 523.2 175.733 508.8 161.333C497.867 150.4 489.6 145.6 475.2 142C465.467 139.467 460.267 139.333 380.4 139.333H295.733L301.867 132.4C314.667 117.733 321.6 99.2 321.867 79.3333C322 60.5333 316.533 44.6667 304.8 29.0667C294.4 15.3333 271.867 0.666649 261.333 0.666649C254.267 0.666649 249.867 8.39998 252.8 15.8666C253.333 17.0666 258.8 20.5333 265.067 23.4666C272.8 27.2 278.8 31.2 283.6 36.1333C302.667 55.2 306.8 84.8 293.733 108.933C285.867 123.467 266 137.2 250.533 138.933L243.333 139.733L248.133 134.533C270.4 110.8 276.267 75.2 262.667 45.3333C254.8 27.8667 239.467 12.5333 221.733 4.53332C217.067 2.39998 211.733 0.666649 209.6 0.666649C202.667 0.666649 198.133 8.79998 200.8 15.8666C201.333 17.0666 206.8 20.5333 213.067 23.4666C227.867 30.6667 236.933 39.4667 243.6 53.6C252 71.0667 251.2 91.3333 241.733 108.933C233.867 123.333 213.333 137.6 198.133 139.067L191.467 139.733L198.533 131.867C206.133 123.2 213.333 109.467 216.133 98C218.667 87.8667 218.267 68.5333 215.467 58C209.6 36.1333 192.933 16 172.533 5.86665C161.067 0.133315 154.8 -0.533351 151.067 3.59998ZM430.667 166.667V174H225.333H20V166.667V159.333H225.333H430.667V166.667ZM476.933 163.6C497.2 171.2 510.4 191.6 509.067 213.333C507.467 236.933 490.267 256.267 466.8 260.667C462.933 261.333 452.533 262 444 262H428.267L432.667 251.467C442.8 227.467 450.667 195.067 450.667 176.933C450.667 172.667 451.067 167.067 451.6 164.133L452.4 159.067L461.2 160C466 160.533 473.2 162.133 476.933 163.6ZM38.1334 195.733C38.5334 196 38.5334 207.333 38.4 220.8L38 245.333L33.6 234.267C30 225.067 22.6667 198.8 22.6667 194.8C22.6667 193.733 36.9334 194.533 38.1334 195.733ZM80 250.667C80 281.067 79.7334 306 79.4667 306C79.0667 306 74.5334 300.933 69.4667 294.8L60 283.733V239.467V195.333H70H80V250.667ZM126.667 268C126.667 309.6 126.133 340.667 125.467 340.667C124.8 340.667 118.8 337.067 112.133 332.667L100 324.667V260V195.333H113.333H126.667V268ZM172 277.333C172 332.533 171.6 359.333 170.667 359.333C169.867 359.333 164.533 357.733 158.667 355.733L148 352.133V273.733V195.333H160H172V277.333ZM214.667 281.067V366.8L204.667 365.867C199.2 365.333 194.133 364.533 193.333 364C192.4 363.467 192 336 192 279.2V195.333H203.333H214.667V281.067ZM427.6 198.267C427.2 200 426.133 204.8 425.2 208.933L423.6 216.667H329.733H236V206V195.333H332.133H428.267L427.6 198.267ZM258.4 299.867C258.533 334.667 258.133 363.067 257.467 363.733C256.933 364.267 251.733 365.333 246.133 365.867L236 366.8V301.733V236.533L247.067 236.933L258 237.333L258.4 299.867ZM412.8 244.933C411.067 248.8 408.667 254.267 407.2 256.933L404.8 262H341.733H278.667V250V238H347.333H416L412.8 244.933ZM303.733 316.8L303.333 351.6L295.333 354.667C290.8 356.267 285.333 358.133 282.933 358.667L278.667 359.6V320.8V282H291.333H304L303.733 316.8ZM390.667 282.933C390.667 283.6 386.667 288.667 381.867 294.267L373.2 304.667H348.667H324V294.267C324 288.533 324.4 283.333 324.933 282.933C326.133 281.6 390.667 281.733 390.667 282.933Z" fill="#985741"/>
<path d="M13.3333 420.667C9.6 424.4 9.86667 431.467 13.7333 435.067L16.8 438H220.533H424.133L427.333 434.667C431.333 430.667 431.6 426.133 427.867 421.467L425.2 418H220.533C17.7333 418 16 418 13.3333 420.667Z" fill="#985741"/>
</svg>
