<svg width="30" height="30" viewBox="0 0 30 30" fill="none" xmlns="http://www.w3.org/2000/svg">
<path fill-rule="evenodd" clip-rule="evenodd" d="M6.66667 1.66667H1.66667V6.66667H6.66667V1.66667ZM1.66667 0C1.22464 0 0.800716 0.175595 0.488155 0.488155C0.175595 0.800716 0 1.22464 0 1.66667V6.66667C0 7.10869 0.175595 7.53262 0.488155 7.84518C0.800716 8.15774 1.22464 8.33333 1.66667 8.33333H6.66667C7.10869 8.33333 7.53262 8.15774 7.84518 7.84518C8.15774 7.53262 8.33333 7.10869 8.33333 6.66667V1.66667C8.33333 1.22464 8.15774 0.800716 7.84518 0.488155C7.53262 0.175595 7.10869 0 6.66667 0H1.66667ZM6.66667 12.5H1.66667V17.5H6.66667V12.5ZM1.66667 10.8333C1.22464 10.8333 0.800716 11.0089 0.488155 11.3215C0.175595 11.634 0 12.058 0 12.5V17.5C0 17.942 0.175595 18.3659 0.488155 18.6785C0.800716 18.9911 1.22464 19.1667 1.66667 19.1667H6.66667C7.10869 19.1667 7.53262 18.9911 7.84518 18.6785C8.15774 18.3659 8.33333 17.942 8.33333 17.5V12.5C8.33333 12.058 8.15774 11.634 7.84518 11.3215C7.53262 11.0089 7.10869 10.8333 6.66667 10.8333H1.66667ZM6.66667 23.3333H1.66667V28.3333H6.66667V23.3333ZM1.66667 21.6667C1.22464 21.6667 0.800716 21.8423 0.488155 22.1548C0.175595 22.4674 0 22.8913 0 23.3333V28.3333C0 28.7754 0.175595 29.1993 0.488155 29.5118C0.800716 29.8244 1.22464 30 1.66667 30H6.66667C7.10869 30 7.53262 29.8244 7.84518 29.5118C8.15774 29.1993 8.33333 28.7754 8.33333 28.3333V23.3333C8.33333 22.8913 8.15774 22.4674 7.84518 22.1548C7.53262 21.8423 7.10869 21.6667 6.66667 21.6667H1.66667ZM17.5 1.66667H12.5V6.66667H17.5V1.66667ZM12.5 0C12.058 0 11.634 0.175595 11.3215 0.488155C11.0089 0.800716 10.8333 1.22464 10.8333 1.66667V6.66667C10.8333 7.10869 11.0089 7.53262 11.3215 7.84518C11.634 8.15774 12.058 8.33333 12.5 8.33333H17.5C17.942 8.33333 18.3659 8.15774 18.6785 7.84518C18.9911 7.53262 19.1667 7.10869 19.1667 6.66667V1.66667C19.1667 1.22464 18.9911 0.800716 18.6785 0.488155C18.3659 0.175595 17.942 0 17.5 0H12.5ZM17.5 12.5H12.5V17.5H17.5V12.5ZM12.5 10.8333C12.058 10.8333 11.634 11.0089 11.3215 11.3215C11.0089 11.634 10.8333 12.058 10.8333 12.5V17.5C10.8333 17.942 11.0089 18.3659 11.3215 18.6785C11.634 18.9911 12.058 19.1667 12.5 19.1667H17.5C17.942 19.1667 18.3659 18.9911 18.6785 18.6785C18.9911 18.3659 19.1667 17.942 19.1667 17.5V12.5C19.1667 12.058 18.9911 11.634 18.6785 11.3215C18.3659 11.0089 17.942 10.8333 17.5 10.8333H12.5ZM17.5 23.3333H12.5V28.3333H17.5V23.3333ZM12.5 21.6667C12.058 21.6667 11.634 21.8423 11.3215 22.1548C11.0089 22.4674 10.8333 22.8913 10.8333 23.3333V28.3333C10.8333 28.7754 11.0089 29.1993 11.3215 29.5118C11.634 29.8244 12.058 30 12.5 30H17.5C17.942 30 18.3659 29.8244 18.6785 29.5118C18.9911 29.1993 19.1667 28.7754 19.1667 28.3333V23.3333C19.1667 22.8913 18.9911 22.4674 18.6785 22.1548C18.3659 21.8423 17.942 21.6667 17.5 21.6667H12.5ZM28.3333 1.66667H23.3333V6.66667H28.3333V1.66667ZM23.3333 0C22.8913 0 22.4674 0.175595 22.1548 0.488155C21.8423 0.800716 21.6667 1.22464 21.6667 1.66667V6.66667C21.6667 7.10869 21.8423 7.53262 22.1548 7.84518C22.4674 8.15774 22.8913 8.33333 23.3333 8.33333H28.3333C28.7754 8.33333 29.1993 8.15774 29.5118 7.84518C29.8244 7.53262 30 7.10869 30 6.66667V1.66667C30 1.22464 29.8244 0.800716 29.5118 0.488155C29.1993 0.175595 28.7754 0 28.3333 0H23.3333ZM28.3333 12.5H23.3333V17.5H28.3333V12.5ZM23.3333 10.8333C22.8913 10.8333 22.4674 11.0089 22.1548 11.3215C21.8423 11.634 21.6667 12.058 21.6667 12.5V17.5C21.6667 17.942 21.8423 18.3659 22.1548 18.6785C22.4674 18.9911 22.8913 19.1667 23.3333 19.1667H28.3333C28.7754 19.1667 29.1993 18.9911 29.5118 18.6785C29.8244 18.3659 30 17.942 30 17.5V12.5C30 12.058 29.8244 11.634 29.5118 11.3215C29.1993 11.0089 28.7754 10.8333 28.3333 10.8333H23.3333ZM28.3333 23.3333H23.3333V28.3333H28.3333V23.3333ZM23.3333 21.6667C22.8913 21.6667 22.4674 21.8423 22.1548 22.1548C21.8423 22.4674 21.6667 22.8913 21.6667 23.3333V28.3333C21.6667 28.7754 21.8423 29.1993 22.1548 29.5118C22.4674 29.8244 22.8913 30 23.3333 30H28.3333C28.7754 30 29.1993 29.8244 29.5118 29.5118C29.8244 29.1993 30 28.7754 30 28.3333V23.3333C30 22.8913 29.8244 22.4674 29.5118 22.1548C29.1993 21.8423 28.7754 21.6667 28.3333 21.6667H23.3333Z" fill="white"/>
</svg>
